<svg width="17" height="18" viewBox="0 0 17 18" fill="none" xmlns="http://www.w3.org/2000/svg">
<path d="M14.6338 6.41206L14.6236 6.40183C14.6227 6.40126 14.6221 6.40049 14.6217 6.3996L8.22222 0L1.82284 6.39944C1.82211 6.40018 1.82095 6.40166 1.82095 6.40166L1.81039 6.41189C0.831839 7.39594 0.210287 8.67885 0.0445478 10.0567C-0.121192 11.4346 0.178392 12.8283 0.895671 14.0164C1.61295 15.2044 2.70677 16.1187 4.00324 16.6136C5.29971 17.1086 6.72443 17.156 8.05091 16.7482C8.16254 16.7141 8.28184 16.7141 8.39348 16.7482C9.71986 17.1558 11.1445 17.1084 12.4409 16.6134C13.7373 16.1183 14.831 15.2042 15.5482 14.0162C16.2654 12.8282 16.5651 11.4346 16.3994 10.0568C16.2337 8.67902 15.6122 7.39611 14.6338 6.41206ZM4.09838 10.6321C4.06723 10.6632 4.04252 10.7002 4.02567 10.7409C4.00882 10.7816 4.00014 10.8252 4.00015 10.8692C4.01154 11.9987 4.33074 13.1036 4.9234 14.0652C4.93686 14.087 4.94308 14.1126 4.94117 14.1381C4.93926 14.1636 4.92932 14.1879 4.91276 14.2075C4.89621 14.2271 4.87389 14.2409 4.84901 14.247C4.82412 14.2531 4.79793 14.2512 4.7742 14.2415C4.32866 14.0541 3.9239 13.7817 3.58257 13.4395C2.88307 12.7399 2.48982 11.7912 2.48918 10.8019C2.48855 9.81254 2.88058 8.86337 3.57919 8.16288L8.22222 3.52028L12.865 8.16288C13.5638 8.86328 13.9559 9.81246 13.9553 10.8019C13.9547 11.7912 13.5614 12.7399 12.8618 13.4395C12.5205 13.7817 12.1157 14.0541 11.6703 14.2415C11.6465 14.2512 11.6203 14.2531 11.5954 14.247C11.5705 14.2409 11.5482 14.227 11.5316 14.2075C11.5151 14.1879 11.5051 14.1636 11.5032 14.138C11.5013 14.1125 11.5075 14.0869 11.521 14.0651C12.1137 13.1036 12.4331 11.9987 12.4447 10.8692C12.4447 10.8252 12.4359 10.7816 12.419 10.7408C12.402 10.7001 12.3773 10.6631 12.346 10.632L10.15 8.30263C10.1281 8.28437 10.1005 8.27437 10.072 8.27437C10.0436 8.27437 10.016 8.28437 9.99419 8.30263C9.9723 8.32081 9.95759 8.34618 9.95247 8.37419C9.94734 8.40221 9.95222 8.43104 9.96627 8.45583C10.8192 9.99929 10.0857 12.2163 8.86265 13.4395L8.85621 13.446C8.68739 13.613 8.4595 13.7066 8.22206 13.7065C7.98459 13.7064 7.75675 13.6126 7.58806 13.4456L7.58212 13.4395C6.35857 12.2163 5.62553 9.99954 6.47858 8.45616C6.4926 8.43137 6.49749 8.40253 6.49239 8.37452C6.48729 8.34651 6.47252 8.32114 6.45067 8.30297C6.42881 8.2847 6.40125 8.27471 6.37279 8.27471C6.34432 8.27471 6.31676 8.2847 6.2949 8.30297L4.09838 10.6321Z" fill="#F53838"/>
</svg>
