<svg width="102" height="80" viewBox="0 0 102 80" fill="none" xmlns="http://www.w3.org/2000/svg">
<rect opacity="0.5" x="0.949425" y="0.949425" width="99.9827" height="77.5477" rx="3.7977" stroke="#F0F0F0" stroke-width="1.89885"/>
<path d="M62.3292 39.7235C63.5374 39.7235 64.6961 40.2034 65.5504 41.0577C66.4047 41.912 66.8846 43.0707 66.8846 44.2789V57.945C66.8846 59.1532 66.4047 60.3119 65.5504 61.1662C64.6961 62.0205 63.5374 62.5004 62.3292 62.5004H39.5523C38.3441 62.5004 37.1855 62.0205 36.3312 61.1662C35.4769 60.3119 34.9969 59.1532 34.9969 57.945V44.2789C34.9969 43.0707 35.4769 41.912 36.3312 41.0577C37.1855 40.2034 38.3441 39.7235 39.5523 39.7235V28.335C39.5523 25.3146 40.7522 22.4179 42.8879 20.2821C45.0237 18.1464 47.9204 16.9465 50.9408 16.9465C53.9612 16.9465 56.8579 18.1464 58.9936 20.2821C61.1294 22.4179 62.3292 25.3146 62.3292 28.335V39.7235ZM50.9408 55.6673C52.1489 55.6673 53.3076 55.1874 54.1619 54.3331C55.0162 53.4788 55.4962 52.3201 55.4962 51.1119C55.4962 49.9038 55.0162 48.7451 54.1619 47.8908C53.3076 47.0365 52.1489 46.5566 50.9408 46.5566C49.7326 46.5566 48.5739 47.0365 47.7196 47.8908C46.8653 48.7451 46.3854 49.9038 46.3854 51.1119C46.3854 52.3201 46.8653 53.4788 47.7196 54.3331C48.5739 55.1874 49.7326 55.6673 50.9408 55.6673ZM57.7739 39.7235V28.335C57.7739 26.5228 57.0539 24.7847 55.7725 23.5033C54.491 22.2218 52.753 21.5019 50.9408 21.5019C49.1285 21.5019 47.3905 22.2218 46.109 23.5033C44.8276 24.7847 44.1077 26.5228 44.1077 28.335V39.7235H57.7739Z" fill="url(#paint0_linear_1_469)"/>
<defs>
<linearGradient id="paint0_linear_1_469" x1="50.9408" y1="16.9465" x2="50.9408" y2="62.5004" gradientUnits="userSpaceOnUse">
<stop stop-color="#FFD5B7"/>
<stop offset="1" stop-color="#FFAB6D"/>
</linearGradient>
</defs>
</svg>
